<svg width="28" height="30" viewBox="0 0 28 30" fill="none" xmlns="http://www.w3.org/2000/svg">
<g filter="url(#filter0_d_566_1671)">
<path d="M19.34 5.46C19.1027 5.46 18.8707 5.53038 18.6733 5.66224C18.476 5.79409 18.3222 5.98151 18.2313 6.20078C18.1405 6.42005 18.1168 6.66133 18.1631 6.89411C18.2094 7.12689 18.3236 7.34071 18.4915 7.50853C18.6593 7.67635 18.8731 7.79064 19.1059 7.83694C19.3387 7.88324 19.5799 7.85948 19.7992 7.76866C20.0185 7.67783 20.2059 7.52402 20.3378 7.32668C20.4696 7.12935 20.54 6.89734 20.54 6.66C20.54 6.34174 20.4136 6.03652 20.1885 5.81147C19.9635 5.58643 19.6583 5.46 19.34 5.46ZM23.94 7.88C23.9206 7.0503 23.7652 6.2294 23.48 5.45C23.2257 4.78313 22.83 4.17928 22.32 3.68C21.8248 3.16743 21.2196 2.77418 20.55 2.53C19.7727 2.23616 18.9508 2.07721 18.12 2.06C17.06 2 16.72 2 14 2C11.28 2 10.94 2 9.88 2.06C9.04915 2.07721 8.22734 2.23616 7.45 2.53C6.78168 2.77665 6.17693 3.16956 5.68 3.68C5.16743 4.17518 4.77418 4.78044 4.53 5.45C4.23616 6.22734 4.07721 7.04915 4.06 7.88C4 8.94 4 9.28 4 12C4 14.72 4 15.06 4.06 16.12C4.07721 16.9508 4.23616 17.7727 4.53 18.55C4.77418 19.2196 5.16743 19.8248 5.68 20.32C6.17693 20.8304 6.78168 21.2234 7.45 21.47C8.22734 21.7638 9.04915 21.9228 9.88 21.94C10.94 22 11.28 22 14 22C16.72 22 17.06 22 18.12 21.94C18.9508 21.9228 19.7727 21.7638 20.55 21.47C21.2196 21.2258 21.8248 20.8326 22.32 20.32C22.8322 19.8226 23.2283 19.2182 23.48 18.55C23.7652 17.7706 23.9206 16.9497 23.94 16.12C23.94 15.06 24 14.72 24 12C24 9.28 24 8.94 23.94 7.88ZM22.14 16C22.1327 16.6348 22.0178 17.2637 21.8 17.86C21.6403 18.2952 21.3839 18.6884 21.05 19.01C20.7256 19.3405 20.3332 19.5964 19.9 19.76C19.3037 19.9778 18.6748 20.0927 18.04 20.1C17.04 20.15 16.67 20.16 14.04 20.16C11.41 20.16 11.04 20.16 10.04 20.1C9.38089 20.1123 8.72459 20.0109 8.1 19.8C7.68578 19.6281 7.31136 19.3728 7 19.05C6.66809 18.7287 6.41484 18.3352 6.26 17.9C6.01586 17.2952 5.88044 16.6519 5.86 16C5.86 15 5.8 14.63 5.8 12C5.8 9.37 5.8 9 5.86 8C5.86448 7.35106 5.98295 6.70795 6.21 6.1C6.38605 5.67791 6.65627 5.30166 7 5C7.30381 4.65617 7.67929 4.3831 8.1 4.2C8.70955 3.98004 9.352 3.86508 10 3.86C11 3.86 11.37 3.8 14 3.8C16.63 3.8 17 3.8 18 3.86C18.6348 3.86728 19.2637 3.98225 19.86 4.2C20.3144 4.36865 20.7223 4.64285 21.05 5C21.3777 5.30718 21.6338 5.68273 21.8 6.1C22.0223 6.70893 22.1373 7.35178 22.14 8C22.19 9 22.2 9.37 22.2 12C22.2 14.63 22.19 15 22.14 16ZM14 6.87C12.9858 6.87198 11.995 7.17453 11.1527 7.73942C10.3103 8.30431 9.65438 9.1062 9.26763 10.0438C8.88089 10.9813 8.78072 12.0125 8.97979 13.0069C9.17886 14.0014 9.66824 14.9145 10.3861 15.631C11.1039 16.3474 12.018 16.835 13.0129 17.0321C14.0077 17.2293 15.0387 17.1271 15.9755 16.7385C16.9123 16.35 17.7129 15.6924 18.2761 14.849C18.8394 14.0056 19.14 13.0142 19.14 12C19.1413 11.3251 19.0092 10.6566 18.7512 10.033C18.4933 9.40931 18.1146 8.84281 17.6369 8.36605C17.1592 7.88929 16.5919 7.51168 15.9678 7.25493C15.3436 6.99818 14.6749 6.86736 14 6.87ZM14 15.33C13.3414 15.33 12.6976 15.1347 12.15 14.7688C11.6023 14.4029 11.1755 13.8828 10.9235 13.2743C10.6714 12.6659 10.6055 11.9963 10.734 11.3503C10.8625 10.7044 11.1796 10.111 11.6453 9.64533C12.111 9.17963 12.7044 8.86247 13.3503 8.73398C13.9963 8.6055 14.6659 8.67144 15.2743 8.92348C15.8828 9.17552 16.4029 9.60234 16.7688 10.15C17.1347 10.6976 17.33 11.3414 17.33 12C17.33 12.4373 17.2439 12.8703 17.0765 13.2743C16.9092 13.6784 16.6639 14.0454 16.3547 14.3547C16.0454 14.6639 15.6784 14.9092 15.2743 15.0765C14.8703 15.2439 14.4373 15.33 14 15.33Z" fill="#F5EFDB"/>
</g>
<defs>
<filter id="filter0_d_566_1671" x="-2" y="0" width="32" height="32" filterUnits="userSpaceOnUse" color-interpolation-filters="sRGB">
<feFlood flood-opacity="0" result="BackgroundImageFix"/>
<feColorMatrix in="SourceAlpha" type="matrix" values="0 0 0 0 0 0 0 0 0 0 0 0 0 0 0 0 0 0 127 0" result="hardAlpha"/>
<feOffset dy="4"/>
<feGaussianBlur stdDeviation="2"/>
<feComposite in2="hardAlpha" operator="out"/>
<feColorMatrix type="matrix" values="0 0 0 0 0 0 0 0 0 0 0 0 0 0 0 0 0 0 0.25 0"/>
<feBlend mode="normal" in2="BackgroundImageFix" result="effect1_dropShadow_566_1671"/>
<feBlend mode="normal" in="SourceGraphic" in2="effect1_dropShadow_566_1671" result="shape"/>
</filter>
</defs>
</svg>
