<?xml version="1.0" encoding="utf-8"?><svg viewBox="0 0 360 379" xmlns="http://www.w3.org/2000/svg" xmlns:xlink="http://www.w3.org/1999/xlink"><style>:root>svg{display:none}:root>svg:target{display:block}</style><svg fill="none" viewBox="0 0 146 146" id="Badge" xmlns="http://www.w3.org/2000/svg"><path d="M97.78 63.503c4.526-4.57 5.658-10.861 2.524-14.025-3.134-3.165-9.366-2.021-13.892 2.548-4.28 4.322-5.523 10.184-2.993 13.483l-5.907 5.965-1.195-1.208-28.233 28.505 3.397 3.429 28.232-28.504-1.195-1.207 5.907-5.965c3.268 2.555 9.074 1.301 13.355-3.021ZM77.618 73.78l-26.052 26.303-1.386-1.398 26.052-26.303 1.386 1.398Zm7.36-8.83c-2.579-2.604-1.484-7.947 2.44-11.91 3.925-3.962 9.217-5.067 11.796-2.463 2.579 2.604 1.485 7.947-2.44 11.91-3.925 3.962-9.216 5.067-11.796 2.463Z" fill="#fff"/><path d="M60.073 52.022c-4.52-4.576-10.742-5.72-13.872-2.552-3.13 3.169-1.999 9.469 2.52 14.044 4.276 4.329 10.073 5.585 13.337 3.026l5.899 5.973-1.194 1.209 28.193 28.543 3.392-3.434-28.194-28.543-1.193 1.208-5.9-5.972c2.527-3.305 1.287-9.174-2.988-13.502ZM70.24 72.406l26.016 26.34-1.383 1.4-26.016-26.34 1.383-1.4Zm-8.734-7.442c-2.576 2.608-7.86 1.501-11.779-2.467-3.92-3.968-5.012-9.317-2.437-11.925 2.576-2.608 7.86-1.501 11.78 2.467 3.919 3.968 5.012 9.317 2.436 11.925Z" fill="#fff"/><path d="M72.103 12.122c-.358 0-.76-.02-1.207-.057a31.287 31.287 0 0 0-.652-.039c-.256-.013-.543-.02-.863-.02l-1.418.02c-.23.013-.556.02-.977.02-.026 0-.039-.04-.039-.116 0-.077.013-.115.038-.115.397 0 .684-.032.863-.096a.575.575 0 0 0 .364-.365c.077-.192.109-.48.096-.865V1.595c-.026-.385-.077-.666-.153-.846a.575.575 0 0 0-.365-.365c-.178-.077-.447-.115-.805-.115-.025 0-.038-.038-.038-.115 0-.077.013-.116.038-.116l.978.02c.562.025 1.022.038 1.38.038.422 0 .843-.02 1.265-.058.537-.025.933-.038 1.188-.038 1.342 0 2.53.25 3.566.75 1.035.486 1.84 1.171 2.415 2.055.575.883.862 1.895.862 3.035 0 1.23-.306 2.325-.92 3.285-.6.948-1.399 1.684-2.396 2.21a6.805 6.805 0 0 1-3.22.787Zm-.172-.384c.894 0 1.674-.211 2.338-.634.665-.435 1.176-1.063 1.534-1.883.37-.82.555-1.806.555-2.958 0-.986-.16-1.921-.479-2.805a4.938 4.938 0 0 0-1.533-2.21C73.656.673 72.774.385 71.7.385c-.511 0-.856.096-1.035.288-.18.18-.269.5-.269.96v8.646c.013.525.122.903.326 1.133.217.218.62.327 1.208.327ZM95.094 12.861a.13.13 0 0 1 .103-.01c.036.011.07.034.1.07.032.023.041.039.025.047a18.026 18.026 0 0 0-.95 2.564c-.03.098-.07.166-.12.205-.048.026-.127.022-.237-.01l-8.387-2.468c-.049-.015-.063-.059-.04-.132.02-.074.05-.106.087-.095.368.108.64.155.817.14a.52.52 0 0 0 .434-.252c.112-.154.224-.421.335-.802l2.5-8.535c.108-.368.157-.648.146-.838a.576.576 0 0 0-.247-.453c-.15-.124-.397-.237-.74-.338-.037-.01-.05-.055-.041-.132.021-.074.045-.107.07-.1l7.926 2.333c.098.029.13.098.098.21l-.676 2.443c-.01.037-.053.045-.126.023-.062-.018-.095-.041-.1-.07-.007-.749-.228-1.402-.665-1.957-.42-.564-1.005-.957-1.753-1.177l-.35-.103c-.38-.111-.664-.162-.854-.15a.464.464 0 0 0-.399.202c-.092.133-.195.37-.308.71l-1.102 3.76 2.3.677c.625.184 1.117.209 1.476.074.359-.134.61-.447.755-.939.014-.05.064-.061.15-.036s.12.069.102.13l-.316 1.009a16.216 16.216 0 0 0-.443 1.512l-.273 1c-.018.061-.064.081-.137.06a.361.361 0 0 1-.105-.051c-.017-.032-.023-.06-.015-.085.154-.528.106-.976-.146-1.344-.236-.377-.648-.651-1.237-.825l-2.262-.665-1.22 4.165c-.144.492-.164.833-.06 1.024.116.194.42.364.91.508l.515.152a3.94 3.94 0 0 0 2.388-.038 4.737 4.737 0 0 0 2.072-1.413ZM102.323 19.583c-.022-.014-.012-.053.029-.118.042-.065.073-.09.095-.076.333.214.592.343.777.386a.519.519 0 0 0 .487-.12c.151-.116.333-.341.547-.675l4.798-7.483c.208-.323.333-.577.376-.763a.576.576 0 0 0-.11-.504c-.109-.162-.314-.34-.615-.533-.032-.021-.027-.064.014-.128.041-.065.078-.087.111-.066l.763.514c.459.327.834.583 1.124.77.291.187.69.429 1.198.726l.833.514c.021.013.011.053-.03.117-.042.065-.073.09-.095.076-.333-.214-.595-.338-.787-.37a.573.573 0 0 0-.487.12c-.14.123-.322.348-.547.675l-4.747 7.402c-.269.42-.389.739-.361.955.035.206.22.416.553.63l.451.291c.871.56 1.721.834 2.55.82.847-.017 1.714-.327 2.601-.928a.13.13 0 0 1 .101.02c.032.02.058.052.076.094.025.032.031.058.017.08a30.364 30.364 0 0 0-1.714 2.39c-.104.161-.236.19-.398.086l-7.61-4.902ZM117.46 31.616c-.017-.019.004-.054.062-.104.057-.05.095-.066.112-.046.259.3.467.492.624.575a.574.574 0 0 0 .514.037c.177-.069.415-.233.715-.493l6.707-5.825c.28-.243.462-.453.547-.628a.578.578 0 0 0 .051-.527c-.059-.186-.21-.42-.452-.7-.017-.02-.001-.06.049-.12.058-.05.099-.06.124-.031l.614.738c.348.443.636.795.862 1.056.251.29.578.65.983 1.079l.629.698c.017.02-.004.055-.062.105-.058.05-.095.066-.112.046-.251-.29-.464-.478-.639-.563a.633.633 0 0 0-.528-.024c-.169.078-.407.243-.715.493l-6.678 5.8c-.289.252-.481.46-.574.626a.709.709 0 0 0-.039.542c.069.177.225.407.467.687.017.02-.003.054-.061.105-.058.05-.096.066-.112.046-.26-.3-.464-.546-.614-.738l-.901-1.073-.906-1.018a19.592 19.592 0 0 1-.667-.743ZM128.319 48.733c-.589-1.293-.852-2.532-.787-3.716.07-1.173.427-2.209 1.07-3.109.655-.905 1.529-1.608 2.622-2.108 1.057-.484 2.132-.638 3.224-.462 1.103.17 2.108.633 3.013 1.387.917.75 1.647 1.718 2.188 2.906.25.548.452 1.13.608 1.75.167.613.255 1.115.264 1.505-.004.114-.024.194-.06.238a.91.91 0 0 1-.238.172l-2.22 1.186c-.046.021-.089.005-.127-.048-.038-.053-.045-.099-.021-.138.698-.812 1.139-1.662 1.325-2.55.197-.892.097-1.776-.301-2.65-.515-1.13-1.317-1.825-2.406-2.087-1.077-.268-2.301-.087-3.673.54-1.197.548-2.159 1.242-2.886 2.082-.727.84-1.176 1.735-1.347 2.686a4.743 4.743 0 0 0 .381 2.825c.191.42.395.713.612.881.229.163.501.221.818.175.333-.04.772-.185 1.319-.435.569-.26.958-.502 1.166-.724a.928.928 0 0 0 .243-.808c-.046-.317-.21-.784-.491-1.401-.032-.07-.002-.126.091-.169a.214.214 0 0 1 .095-.022c.046.007.074.022.085.046.382.993.719 1.81 1.011 2.451.276.606.58 1.227.913 1.863.021.047-.007.095-.083.144-.076.048-.124.05-.146.003-.073-.192-.173-.287-.298-.286-.126.002-.375.087-.747.258l-1.186.542c-.523.24-.881.425-1.074.556-.194.13-.331.214-.412.252-.07.031-.122.041-.156.028-.028 0-.07-.03-.125-.09-1.005-1.342-1.76-2.567-2.264-3.673ZM134.145 70.85c.003.026-.033.044-.109.055-.076.01-.116.004-.119-.022a16.446 16.446 0 0 1-.107-.877l-.185-1.429-.216-1.366c-.047-.24-.1-.568-.16-.986-.004-.026.031-.05.105-.074.076-.01.117.003.122.04.057.394.128.668.215.824a.52.52 0 0 0 .41.29c.184.025.472.01.864-.047l4.364-.629-.786-5.476-4.363.629c-.38.054-.653.126-.821.215a.702.702 0 0 0-.325.435c-.038.187-.03.47.025.85.005.038-.03.063-.106.074-.076.01-.116-.003-.122-.04-.06-.42-.1-.743-.12-.973l-.183-1.41-.207-1.31c-.047-.239-.099-.555-.155-.948-.006-.038.029-.062.105-.073.076-.011.117.003.122.04.055.38.126.649.212.805a.522.522 0 0 0 .41.29c.186.038.475.029.867-.028l8.785-1.266c.533-.064.87-.19 1.01-.378.154-.19.193-.546.119-1.066-.006-.038.029-.062.105-.073.076-.01.117.003.122.04l.112.916c.055.562.107 1.013.156 1.356.049.342.128.803.237 1.382l.158.967c.004.026-.032.044-.108.055-.076.01-.116.004-.119-.022-.055-.38-.133-.653-.234-.82a.637.637 0 0 0-.451-.304c-.184-.025-.467-.017-.848.025l-3.851.555.783 5.458 3.851-.555c.544-.079.892-.213 1.046-.403.155-.178.195-.527.121-1.046-.004-.026.032-.05.106-.074.075-.01.116.003.122.04l.114.935c.055.562.108 1.02.159 1.375.049.342.126.79.231 1.344l.158.968c.006.038-.029.062-.105.073-.076.01-.117-.003-.122-.04-.055-.381-.133-.654-.234-.82a.575.575 0 0 0-.41-.291c-.186-.038-.47-.042-.854-.013l-8.784 1.266c-.367.053-.639.13-.818.234a.778.778 0 0 0-.32.473c-.036.2-.027.483.026.85ZM133.368 78.961c.006-.038.046-.052.122-.04.076.01.112.028.109.054-.077.532-.1.923-.072 1.173.027.263.123.452.287.566.177.116.455.201.835.256l8.784 1.266c.441.076.74.061.897-.046.17-.105.281-.334.332-.69l.035-.247c.062-.43-.016-.875-.235-1.334a3.513 3.513 0 0 0-.928-1.22 3.38 3.38 0 0 0-1.385-.743c-.025-.004-.033-.038-.024-.101a.354.354 0 0 1 .035-.111c.029-.022.049-.026.06-.011.471.132 1.716.409 3.734.83.038.005.053.039.044.102a.226.226 0 0 1-.033.093c-.018.036-.04.052-.065.049-.266-.039-.439.227-.521.798a109.697 109.697 0 0 0-.611 3.852c-.1.697-.199 1.479-.297 2.344l-.172 1.334c-.06.418-.072.727-.036.926.036.2.145.338.327.416.035.031.041.077.019.139-.011.076-.041.104-.089.084a95.221 95.221 0 0 0-2.09-.418c-.829-.158-1.39-.252-1.683-.28-.038-.006-.052-.047-.041-.123.015-.102.047-.149.098-.141a3 3 0 0 0 1.494-.154 2.726 2.726 0 0 0 1.201-.817c.324-.367.521-.791.59-1.273l.035-.247c.037-.254.031-.442-.016-.566-.048-.11-.147-.189-.295-.236a5.867 5.867 0 0 0-.713-.161l-8.749-1.241c-.392-.057-.682-.06-.87-.01-.19.064-.333.211-.431.443-.098.232-.186.62-.264 1.165-.006.038-.046.052-.122.041-.076-.01-.111-.035-.106-.073.067-.47.127-.836.177-1.1l.268-1.728.215-1.638c.028-.281.078-.675.15-1.182ZM120.009 111.475c.017-.019.055-.004.112.047.058.05.079.085.062.104-.259.3-.419.534-.48.702a.58.58 0 0 0 .037.515c.094.166.29.379.589.639l6.707 5.824c.28.244.513.395.698.454.187.078.363.07.529-.024.175-.085.384-.268.626-.549.017-.019.059-.009.125.032.058.05.074.09.049.119l-.642.714c-.387.409-.694.744-.92 1.005-.251.291-.56.667-.925 1.129l-.601.724c-.016.019-.054.004-.112-.047-.058-.05-.078-.085-.062-.104.252-.291.407-.529.466-.715a.639.639 0 0 0-.051-.527c-.102-.156-.298-.369-.589-.639l-6.678-5.799c-.29-.252-.524-.412-.701-.481a.695.695 0 0 0-.54.039c-.166.093-.37.28-.613.561-.016.019-.054.004-.112-.047-.057-.05-.078-.085-.061-.104.259-.3.473-.538.642-.713l.931-1.048.876-1.043c.15-.192.362-.448.638-.768ZM106.302 138.166c-.033.021-.069-.001-.111-.065-.041-.065-.046-.108-.014-.129.441-.283.704-.666.79-1.148.076-.475-.047-.974-.368-1.498l-5.331-8.35c-.031-.025-.022-.07.029-.133a.443.443 0 0 1 .162-.173c.108-.069.198-.082.272-.038l12.207 4.149-4.139-6.491c-.321-.524-.713-.85-1.175-.979-.462-.128-.919-.047-1.37.244-.043.027-.085.009-.127-.056-.041-.065-.041-.111.002-.138.301-.194.536-.338.704-.431l1.026-.638.957-.639c.176-.129.431-.3.764-.515.043-.028.085-.009.127.055.041.065.04.111-.003.139-.451.291-.709.67-.774 1.138-.075.475.048.974.369 1.498l4.533 7.105c.533.144.968.207 1.305.188.326-.013.618-.102.876-.268.022-.014.053.011.095.076.041.065.051.104.029.118l-.881.545c-.179.1-.413.243-.703.43-.291.187-.529.348-.716.484-.197.142-.328.234-.392.275-.086.056-.165.076-.235.06a.955.955 0 0 1-.333-.128 9.042 9.042 0 0 0-.729-.284l-9.681-3.264 3.616 5.709c.321.524.712.851 1.174.979.452.136.909.055 1.371-.243.043-.028.085-.009.127.055.041.065.04.111-.003.139l-.639.389a25.74 25.74 0 0 0-1.101.663c-.226.146-.536.361-.931.645l-.779.525ZM68.234 137.048a.132.132 0 0 1-.095.038.21.21 0 0 1-.115-.038c-.039-.013-.052-.026-.039-.039a18.04 18.04 0 0 0 .192-2.728c0-.102.02-.179.057-.23.039-.039.115-.058.23-.058h8.74c.052 0 .078.039.078.115 0 .077-.02.116-.058.116-.383 0-.658.032-.824.096a.52.52 0 0 0-.345.365c-.064.179-.096.467-.096.864v8.895c0 .384.032.666.096.845.064.18.185.301.364.365.179.077.447.115.805.115.038 0 .064.039.077.116 0 .077-.013.115-.039.115h-8.26c-.103 0-.154-.058-.154-.173l-.038-2.536c0-.038.038-.057.114-.057.064 0 .103.012.115.038.218.717.614 1.281 1.189 1.691.562.422 1.233.634 2.013.634h.364c.396 0 .683-.032.862-.096a.466.466 0 0 0 .326-.308c.051-.154.083-.41.096-.768v-3.919h-2.396c-.652 0-1.131.115-1.438.345-.306.231-.46.602-.46 1.115 0 .051-.044.077-.134.077-.09 0-.134-.032-.134-.097l.02-1.056a16.271 16.271 0 0 0 0-1.575l-.02-1.038c0-.064.038-.096.115-.096.038 0 .077.007.115.019.026.026.038.052.038.077 0 .551.173.967.518 1.249.332.294.805.442 1.418.442h2.358v-4.342c0-.512-.077-.845-.23-.999-.166-.154-.505-.23-1.016-.23h-.537c-.83 0-1.59.237-2.28.71a4.75 4.75 0 0 0-1.592 1.941ZM45.75 141.133c-.062-.018-.081-.064-.06-.138.022-.074.063-.101.124-.083.454.133.89.121 1.31-.036.406-.16.873-.597 1.402-1.309l6.221-8.28c.055-.051.156-.054.303-.011a.505.505 0 0 1 .173.091c.058.03.09.06.094.088l1.658 11.32c.077.556.192.957.347 1.203.15.258.398.437.74.538.038.011.045.053.024.127-.022.074-.045.107-.07.1l-.969-.305a19.443 19.443 0 0 0-.964-.324c-.466-.137-.996-.28-1.592-.429l-.907-.246c-.061-.018-.08-.064-.06-.138.022-.074.064-.102.125-.084.687.202 1.086.113 1.197-.268.04-.135.045-.334.015-.596l-1.227-8.631-4.48 6.09c-.178.241-.296.46-.353.657-.112.381-.057.717.164 1.009.217.305.558.525 1.024.662.05.015.063.059.041.133-.021.073-.056.103-.106.088l-.932-.294c-.532-.183-1.02-.34-1.46-.47-.246-.072-.556-.15-.931-.234l-.851-.23ZM34.417 124.434a.132.132 0 0 1-.101-.02.205.205 0 0 1-.076-.095c-.026-.031-.03-.049-.012-.053a17.95 17.95 0 0 0 1.633-2.191.387.387 0 0 1 .173-.163c.053-.011.128.014.224.077l7.353 4.736c.043.027.044.074.003.138-.042.065-.079.087-.111.066-.322-.208-.57-.33-.745-.366a.52.52 0 0 0-.487.12c-.15.116-.333.342-.547.676l-4.798 7.482c-.208.324-.333.578-.376.763a.577.577 0 0 0 .11.505c.109.161.314.339.615.533.032.021.033.067.002.138-.041.065-.073.09-.094.077l-6.95-4.477c-.086-.055-.098-.131-.036-.228l1.336-2.154c.02-.033.063-.028.128.013.054.035.079.067.076.095-.204.721-.175 1.41.088 2.066.245.66.695 1.202 1.35 1.624l.307.197c.333.215.593.344.778.387.167.047.314.02.44-.082.125-.102.29-.3.495-.595l2.114-3.296-2.016-1.299c-.548-.353-1.014-.516-1.396-.488-.382.028-.712.257-.988.688-.027.043-.079.041-.154-.008-.076-.048-.096-.099-.061-.153l.586-.879a16.513 16.513 0 0 0 .85-1.325l.543-.883c.035-.054.084-.06.149-.019a.362.362 0 0 1 .086.079c.008.035.005.064-.01.085-.296.464-.376.907-.237 1.331.12.428.438.808.954 1.14l1.984 1.278 2.342-3.652c.276-.431.391-.753.345-.965-.057-.22-.3-.468-.73-.745l-.452-.291a3.948 3.948 0 0 0-2.302-.638 4.736 4.736 0 0 0-2.385.771ZM22.115 107.906c-.025-.029-.009-.069.05-.119.049-.06.09-.071.124-.032l2.058 2.381c.201.232.166.974-.104 2.226-.289 1.25-.864 2.961-1.725 5.133.302.212.595.483.88.812.041.049.086.12.134.214l3.433-2.982c.288-.233.484-.437.587-.611a.708.708 0 0 0 .039-.542c-.078-.187-.242-.426-.493-.716-.033-.039-.021-.084.037-.134.05-.06.091-.071.124-.032.285.329.498.585.639.768l.914 1.087.956 1.076c.177.185.408.442.692.771.034.039.026.088-.024.148-.058.051-.104.057-.137.018-.276-.32-.505-.536-.688-.649-.191-.104-.376-.122-.553-.053-.195.068-.437.218-.725.452l-6.707 5.825c-.29.251-.477.465-.562.64a.58.58 0 0 0-.024.53c.067.195.23.443.49.743.034.039.021.083-.037.134-.057.05-.103.056-.137.017l-.65-.782c-.35-.443-.64-.799-.875-1.07-.285-.33-.614-.671-.987-1.025a15.774 15.774 0 0 1-.556-.584c-.845-.978-1.318-1.847-1.417-2.608-.108-.77.122-1.403.692-1.897.415-.361.938-.569 1.567-.624a4.391 4.391 0 0 1 1.911.246c.593-1.837 1.021-3.327 1.284-4.47.245-1.145.355-2.054.33-2.727-.042-.675-.222-1.197-.54-1.564Zm1.011 10.967a2.346 2.346 0 0 0-.32-.459c-.553-.638-1.082-.967-1.588-.985-.514-.028-1.1.244-1.756.814-.686.595-1.071 1.167-1.156 1.715-.102.546.014 1.013.349 1.4.226.262.4.424.522.487.113.072.249.072.408.002.14-.072.375-.241.702-.508l2.839-2.466ZM4.22 98.279c-.026-.059-.004-.104.066-.136.07-.031.118-.018.144.04.186.408.52.726 1.004.955.467.223 1.108.366 1.924.43l4.109.23 4.062-1.859c.36-.165.609-.314.745-.446a.64.64 0 0 0 .156-.536c-.027-.213-.136-.53-.327-.95-.021-.046.003-.085.073-.117.07-.032.115-.025.136.022.186.408.324.725.413.952l.612 1.388.678 1.443c.118.227.267.539.447.935.022.047-.003.086-.072.118-.07.032-.116.025-.137-.022-.191-.419-.36-.715-.51-.886-.16-.166-.336-.247-.53-.243-.2-.007-.473.076-.816.247l-3.81 1.765-2.954 4.71c-.302.476-.494.888-.575 1.235-.086.335-.07.63.046.887.021.046-.003.086-.073.117-.064.044-.104.048-.12.013l-.397-.916a22.636 22.636 0 0 0-.41-.995 38.976 38.976 0 0 0-.633-1.294l-.423-.884c-.016-.035-.001-.063.045-.084a.208.208 0 0 1 .121-.013c.029.001.048.013.059.036.138.303.262.514.372.633.105.106.21.136.314.088.105-.048.212-.167.322-.358l2.816-4.457-3.94-.182c-.28.001-.513.045-.699.13a.897.897 0 0 0-.518.575c-.083.249-.047.542.107.88.02.047-.003.086-.073.118-.07.032-.113.031-.129-.004l-.412-.952a39.961 39.961 0 0 0-.579-1.362 8.403 8.403 0 0 0-.345-.665l-.288-.586ZM6.085 62.106c.281-1.059.759-1.87 1.434-2.433.661-.564 1.422-.785 2.283-.66a2.958 2.958 0 0 1 1.698.846c.475.47.822 1.07 1.04 1.8.205.728.247 1.517.125 2.366-.05.355-.128.758-.231 1.209-.039.175-.083.395-.134.66-.049.251-.096.536-.142.853l-.177 1.372c-.022.242-.064.58-.126 1.01-.003.025-.043.033-.119.022-.076-.011-.112-.03-.108-.055.052-.367.06-.644.022-.831a.702.702 0 0 0-.322-.454c-.166-.102-.44-.18-.819-.234L1.725 66.31c-.367-.053-.644-.054-.832-.004a.576.576 0 0 0-.434.326c-.101.166-.178.434-.231.801-.004.026-.043.033-.12.022-.075-.011-.111-.03-.108-.055l.164-1.005c.105-.554.182-1.002.231-1.344.051-.355.085-.726.102-1.111.005-.129.02-.321.044-.576.023-.256.049-.479.076-.669.171-1.191.512-2.08 1.022-2.667.512-.599 1.166-.84 1.963-.726.607.088 1.128.37 1.563.846.435.477.742 1.13.92 1.957Zm-5.13.93c-.052.368 0 .634.157.8.157.164.476.281.957.35l3.604.52.131-.777c.098-.684-.073-1.246-.513-1.685-.452-.453-1.057-.734-1.816-.844-.72-.104-1.295-.012-1.724.276-.44.273-.704.726-.795 1.36Zm11.246 1.252c.13-.9.003-1.591-.38-2.073s-1.01-.786-1.883-.912c-.974-.14-1.78-.01-2.419.389-.638.4-1.029 1.1-1.172 2.102-.053.367-.088.699-.104.994l4.572.659c.443.064.764.026.965-.113.2-.14.341-.488.421-1.046ZM16.611 49.462c-.01.024-.05.02-.12-.012-.07-.032-.1-.06-.089-.083.165-.361.253-.631.264-.809a.576.576 0 0 0-.18-.484c-.137-.132-.385-.281-.745-.446l-8.073-3.695c-.337-.154-.603-.234-.797-.239a.575.575 0 0 0-.5.173c-.144.131-.293.366-.447.704-.011.023-.054.024-.129.004-.07-.032-.097-.065-.08-.1l.415-.866c.257-.502.457-.91.6-1.225.16-.35.35-.797.57-1.344l.373-.864c.01-.023.051-.02.12.013.07.032.1.06.09.083-.16.35-.242.621-.246.816a.637.637 0 0 0 .197.492c.142.121.39.27.745.447l8.038 3.679c.348.16.617.247.807.263a.704.704 0 0 0 .508-.19c.132-.136.275-.373.43-.711.01-.023.05-.02.12.013.07.032.099.06.088.083-.164.36-.303.65-.415.865l-.599 1.268-.548 1.249c-.09.227-.221.532-.396.916ZM24.974 35.178c-.025.03-.066.019-.124-.032-.058-.05-.079-.085-.062-.104.352-.407.583-.723.693-.949.12-.235.14-.446.064-.63-.086-.194-.274-.417-.564-.669l-6.707-5.824c-.33-.304-.59-.453-.78-.448-.199-.004-.416.13-.65.4l-.163.19c-.285.328-.459.745-.523 1.249a3.523 3.523 0 0 0 .123 1.53c.146.516.4.974.764 1.375.02.017.008.05-.034.098a.361.361 0 0 1-.09.074c-.035.003-.054-.005-.055-.023-.326-.367-1.224-1.274-2.695-2.721-.029-.025-.022-.062.02-.11a.215.215 0 0 1 .077-.06c.034-.021.061-.023.08-.006.204.176.493.046.87-.39.707-.758 1.57-1.728 2.591-2.91.46-.532.966-1.135 1.515-1.81l.864-1.029c.277-.32.453-.573.53-.76a.528.528 0 0 0-.05-.527c-.013-.045.007-.087.058-.127.05-.058.09-.066.12-.022.4.398.912.892 1.534 1.483.612.583 1.033.966 1.264 1.149.029.025.018.067-.032.125-.067.077-.12.1-.159.066a3.002 3.002 0 0 0-1.339-.68 2.723 2.723 0 0 0-1.451.035c-.47.134-.865.385-1.183.752l-.163.19c-.168.193-.265.354-.292.483-.019.12.022.24.12.36.09.11.261.285.514.52l6.69 5.786c.3.26.542.42.727.479.194.05.395.003.602-.139.207-.142.49-.42.85-.837.026-.029.067-.018.125.032.058.05.075.09.05.12-.31.357-.558.634-.743.829l-1.157 1.308-1.065 1.262c-.174.22-.429.525-.764.912ZM42.024 16.706a.13.13 0 0 1 .06-.085.207.207 0 0 1 .117-.03c.04-.01.057-.006.053.012.342.77.778 1.569 1.31 2.399.056.086.08.16.076.225-.011.053-.065.11-.162.173l-7.353 4.736c-.043.028-.085.01-.127-.055-.041-.065-.046-.108-.014-.129.323-.207.537-.383.642-.527a.523.523 0 0 0 .093-.494c-.043-.186-.171-.445-.385-.78l-4.798-7.482c-.208-.323-.386-.543-.537-.66a.573.573 0 0 0-.503-.109c-.192.032-.438.146-.74.34-.032.02-.074.002-.126-.056-.042-.065-.052-.104-.03-.118l6.95-4.476c.086-.056.16-.035.222.062l1.4 2.113c.02.032-.001.069-.066.11-.053.035-.093.045-.117.03-.57-.485-1.207-.745-1.912-.778-.7-.05-1.38.135-2.035.557l-.306.198c-.333.214-.558.397-.674.548a.466.466 0 0 0-.108.435c.04.157.15.39.334.698l2.114 3.297 2.015-1.298c.548-.353.89-.71 1.023-1.07.134-.36.062-.755-.214-1.186-.028-.043-.004-.09.071-.138.076-.048.13-.045.165.008l.554.9a16.169 16.169 0 0 0 .85 1.325l.575.862c.035.054.02.102-.045.143a.36.36 0 0 1-.107.047c-.035-.008-.06-.023-.073-.044-.297-.464-.667-.72-1.11-.77-.438-.068-.915.064-1.43.396l-1.984 1.278 2.342 3.652c.276.431.52.67.732.716.223.04.55-.08.98-.356l.45-.291a3.956 3.956 0 0 0 1.536-1.834 4.76 4.76 0 0 0 .292-2.494Z" fill="#DCCA87"/></svg><svg fill="none" viewBox="0 0 24 24" id="Facebook" xmlns="http://www.w3.org/2000/svg"><path d="M15.12 5.32H17V2.14A26.113 26.113 0 0 0 14.26 2c-2.72 0-4.58 1.66-4.58 4.7v2.62H6.61v3.56h3.07V22h3.68v-9.12h3.06l.46-3.56h-3.52V7.05c0-1.05.28-1.73 1.76-1.73Z" fill="#F5EFDB"/></svg><svg fill="none" viewBox="0 0 360 379" id="G" xmlns="http://www.w3.org/2000/svg"><path opacity=".8" d="M211.35 379c-43.444 0-81.213-8.383-113.307-25.15-31.703-16.766-55.969-39.771-72.799-69.015C8.415 255.201 0 222.058 0 185.406c0-35.483 9.393-67.261 28.18-95.335 18.787-28.464 44.423-50.494 76.908-66.091C137.573 7.993 173.777 0 213.699 0c18.395 0 37.181 1.755 56.36 5.264 19.178 3.12 34.246 7.018 45.205 11.697 3.131 1.56 5.088 3.12 5.871 4.68.783 1.56 1.37 4.484 1.761 8.773l4.697 76.618c0 1.56-.979 2.535-2.936 2.925-1.957.39-3.326 0-4.109-1.17-13.699-29.634-31.703-52.639-54.012-69.015-22.309-16.767-48.141-25.15-77.495-25.15-37.965 0-67.515 13.452-88.65 40.356-21.135 26.515-31.702 62.777-31.702 108.787 0 40.162 7.045 75.644 21.135 106.448 14.09 30.803 33.268 54.588 57.534 71.355 24.658 16.766 52.446 25.15 83.366 25.15 14.09 0 24.853-1.95 32.29-5.849 7.436-4.289 12.524-11.113 15.264-20.471 3.131-9.748 4.696-23.785 4.696-42.111 0-19.106-1.761-32.948-5.283-41.526-3.523-8.578-9.981-14.232-19.374-16.962-9.393-2.729-24.462-4.094-45.206-4.094-2.348 0-3.522-1.559-3.522-4.679 0-1.17.196-2.144.587-2.924.783-1.17 1.566-1.755 2.348-1.755 32.486 1.95 59.492 2.925 81.018 2.925 20.352 0 41.487-.585 63.405-1.755 1.566 0 2.544 1.365 2.935 4.094.392 2.73-.195 4.094-1.761 4.094-6.262-.39-10.176 1.17-11.741 4.679-1.566 3.51-2.349 11.503-2.349 23.98v39.772c0 17.546.587 29.828 1.761 36.847 1.175 7.019 1.762 11.893 1.762 14.622 0 2.339-.392 3.899-1.174 4.679-.392.78-1.762 1.56-4.11 2.339C292.172 373.541 248.532 379 211.35 379Z" fill="#FAFAFA"/></svg><svg fill="none" viewBox="0 0 28 30" id="Instagram" xmlns="http://www.w3.org/2000/svg"><g filter="url(#da)"><path d="M19.34 5.46a1.2 1.2 0 1 0 0 2.4 1.2 1.2 0 0 0 0-2.4Zm4.6 2.42a7.588 7.588 0 0 0-.46-2.43 4.94 4.94 0 0 0-1.16-1.77 4.7 4.7 0 0 0-1.77-1.15 7.3 7.3 0 0 0-2.43-.47C17.06 2 16.72 2 14 2s-3.06 0-4.12.06a7.3 7.3 0 0 0-2.43.47 4.78 4.78 0 0 0-1.77 1.15 4.7 4.7 0 0 0-1.15 1.77 7.3 7.3 0 0 0-.47 2.43C4 8.94 4 9.28 4 12s0 3.06.06 4.12a7.3 7.3 0 0 0 .47 2.43 4.7 4.7 0 0 0 1.15 1.77 4.78 4.78 0 0 0 1.77 1.15 7.3 7.3 0 0 0 2.43.47c1.06.06 1.4.06 4.12.06s3.06 0 4.12-.06a7.3 7.3 0 0 0 2.43-.47 4.7 4.7 0 0 0 1.77-1.15 4.85 4.85 0 0 0 1.16-1.77c.285-.78.44-1.6.46-2.43 0-1.06.06-1.4.06-4.12s0-3.06-.06-4.12ZM22.14 16a5.61 5.61 0 0 1-.34 1.86 3.06 3.06 0 0 1-.75 1.15c-.324.33-.717.586-1.15.75a5.61 5.61 0 0 1-1.86.34c-1 .05-1.37.06-4 .06s-3 0-4-.06a5.73 5.73 0 0 1-1.94-.3 3.27 3.27 0 0 1-1.1-.75 3 3 0 0 1-.74-1.15 5.54 5.54 0 0 1-.4-1.9c0-1-.06-1.37-.06-4s0-3 .06-4a5.54 5.54 0 0 1 .35-1.9A3 3 0 0 1 7 5a3.14 3.14 0 0 1 1.1-.8 5.73 5.73 0 0 1 1.9-.34c1 0 1.37-.06 4-.06s3 0 4 .06a5.61 5.61 0 0 1 1.86.34 3.06 3.06 0 0 1 1.19.8c.328.307.584.683.75 1.1.222.609.337 1.252.34 1.9.05 1 .06 1.37.06 4s-.01 3-.06 4ZM14 6.87A5.13 5.13 0 1 0 19.14 12 5.12 5.12 0 0 0 14 6.87Zm0 8.46a3.33 3.33 0 1 1 0-6.66 3.33 3.33 0 0 1 0 6.66Z" fill="#F5EFDB"/></g><defs><filter id="da" x="-2" y="0" width="32" height="32" filterUnits="userSpaceOnUse" color-interpolation-filters="sRGB"><feFlood flood-opacity="0" result="BackgroundImageFix"/><feColorMatrix in="SourceAlpha" values="0 0 0 0 0 0 0 0 0 0 0 0 0 0 0 0 0 0 127 0" result="hardAlpha"/><feOffset dy="4"/><feGaussianBlur stdDeviation="2"/><feComposite in2="hardAlpha" operator="out"/><feColorMatrix values="0 0 0 0 0 0 0 0 0 0 0 0 0 0 0 0 0 0 0.25 0"/><feBlend in2="BackgroundImageFix" result="effect1_dropShadow_566_1671"/><feBlend in="SourceGraphic" in2="effect1_dropShadow_566_1671" result="shape"/></filter></defs></svg><svg fill="none" viewBox="0 0 241 93" id="Kevin-Luo" xmlns="http://www.w3.org/2000/svg"><path d="M69.219 23.531c-.167-.291.625-1.312 2.375-3.062 1.77-1.771 2.656-3.073 2.656-3.907 0-.604-.104-.968-.313-1.093-.208-.146-.802-.219-1.78-.219-1.417 0-3.397.417-5.938 1.25-2.104.667-5.563 2.156-10.375 4.469-4.813 2.312-8.927 4.458-12.344 6.437-3.854 2.23-8.781 5.417-14.781 9.563-6 4.146-9.709 6.927-11.125 8.343-.521.521-1.563 2.74-3.125 6.657a114.207 114.207 0 0 1-.875 2.187 16.44 16.44 0 0 0-.563 1.657 67.702 67.702 0 0 1-.406 1.312c-.042.167-.042.49 0 .969.042.458.094.74.156.843.084.105.281.365.594.782.313.416.573.718.781.906.209.167.594.51 1.156 1.031 3.48 3.209 7.698 4.99 12.657 5.344 4.979.354 10.968-.688 17.968-3.125 3.188-1.125 5.26-1.77 6.22-1.938.603-.124.968-.135 1.093-.03.146.083.177.364.094.843-.063.438-.344.833-.844 1.188-.48.333-1.406.77-2.781 1.312-7.834 3.104-14.886 4.49-21.157 4.156-6.25-.354-11.333-2.416-15.25-6.187l-2.437-2.313-1.281 3.219C6.74 71.208 4.719 77.145 3.53 81.938c-1.187 4.791-1.27 7.385-.25 7.78.209.063.386.21.531.438.146.23.22.469.22.719 0 .417-.24.698-.72.844-.458.166-.968.166-1.53 0-.542-.146-.917-.427-1.126-.844-.416-.792-.562-2.156-.437-4.094.125-1.937.5-4.073 1.125-6.406.604-2.292 1.625-5.49 3.062-9.594 1.459-4.125 2.646-7.219 3.563-9.281.666-1.646.99-3.458.968-5.438-.062-1.729.188-3.27.75-4.624.584-1.355 1.646-2.97 3.188-4.844.563-.688 1.188-1.646 1.875-2.875a27.443 27.443 0 0 0 1.719-3.657c1.041-2.645 3.01-8.291 5.906-16.937C25.292 14.479 27.167 8.708 28 5.812c.688-2.375 1.24-3.906 1.656-4.593.417-.688.896-.865 1.438-.532.52.334.427 1.782-.282 4.344-.687 2.542-2.677 8.74-5.968 18.594a1184.794 1184.794 0 0 0-3.938 11.938c-1.062 3.27-1.573 4.906-1.531 4.906.083 0 1.302-.865 3.656-2.594 7.063-5.188 14.75-10.083 23.063-14.688 8.312-4.625 15.041-7.74 20.187-9.343 1.938-.604 3.688-.927 5.25-.969 1.563-.063 2.771.135 3.625.594.875.458 1.459 1.083 1.75 1.875.292.791.167 1.77-.375 2.937-.541 1.146-1.469 2.365-2.781 3.657-.98.958-1.896 1.593-2.75 1.906-.854.291-1.448.187-1.781-.313Zm1.966 33.313c.208.52.01 1.073-.594 1.656-.583.583-2.218 1.823-4.906 3.719-3.042 2.166-5.365 3.541-6.969 4.125-1.604.583-3.093.594-4.468.031-1.25-.5-1.907-1.688-1.97-3.563-.062-1.895.48-4.052 1.626-6.468.729-1.542 1.458-2.782 2.187-3.719.75-.958 1.636-1.604 2.657-1.938 1.062-.333 1.916-.145 2.562.563.667.688.906 1.5.719 2.438-.188 1-.886 2.156-2.094 3.468-1.208 1.292-2.25 1.938-3.125 1.938-.688 0-1.135.114-1.344.343-.208.209-.416.823-.625 1.844-.187.98-.073 1.782.344 2.407.333.416.635.645.906.687.271.02.844-.094 1.719-.344 1.188-.333 3.49-1.74 6.906-4.219a94.79 94.79 0 0 1 3.094-2.187c.75-.52 1.375-.885 1.875-1.094.5-.229.844-.302 1.031-.218.188.062.344.24.469.53ZM57.779 54.5c-.75 1.083-.98 1.698-.688 1.844.209.062.573-.146 1.094-.625.792-.75 1.188-1.344 1.188-1.782 0-.562-.188-.75-.563-.562-.313.146-.656.52-1.031 1.125Zm29.685-1.063c.958-.354 1.666-.416 2.125-.187.479.208.583.646.312 1.313-.291.77-1.302 1.312-3.031 1.624-1.708.313-2.865.167-3.469-.437-.27-.27-.479-.375-.625-.313-.333.126-1.26 1.157-2.781 3.094-.396.521-1.198 1.563-2.406 3.125-1.771 2.354-3.021 3.886-3.75 4.594-.709.688-1.386 1.063-2.031 1.125-.605.063-1.032.031-1.282-.094-.25-.146-.458-.437-.625-.875-.479-1.437-.291-4.219.563-8.344.583-2.979 1.291-4.5 2.125-4.562.208 0 .406.094.594.281.208.23.28.677.218 1.344-.041.646-.208 1.75-.5 3.313-.146.729-.27 1.343-.375 1.843-.083.5-.156.98-.218 1.438-.063.437-.105.791-.126 1.062-.02.25-.01.469.032.657.041.166.094.26.156.28.083.022.208-.01.375-.093.167-.104.344-.25.531-.438a56.386 56.386 0 0 0 2.844-3.563c1.02-1.374 2.99-4.01 5.906-7.905l2.907-3.875c.333-.438.562-.667.687-.688.146-.041.396.104.75.438.354.354.51.698.469 1.031-.021.333-.271 1.083-.75 2.25-.688 1.667-.927 2.615-.719 2.844.25.25.948.156 2.094-.282Zm27.154 2.876c.562-.063.958.145 1.187.624.229.48.083 1.032-.437 1.657a75.37 75.37 0 0 1-1.375 1.468c-.5.5-1.344 1.271-2.532 2.313a41.99 41.99 0 0 1-3.562 2.813c-1.188.812-2.594 1.604-4.219 2.374-1.625.771-3.198 1.303-4.719 1.594-2.208.417-4.166.084-5.875-1-1.708-1.104-2.666-2.646-2.875-4.625-.208-2.083-.083-4.26.375-6.531.396-1.917.886-3.302 1.469-4.156.583-.854 1.198-1.073 1.844-.657.291.167.437.563.437 1.188 0 .604-.135.99-.406 1.156-.292.188-.625 1.542-1 4.063-.25 1.604-.375 2.74-.375 3.406.02.646.188 1.344.5 2.094.583 1.416 1.719 2.208 3.406 2.375 1.709.146 3.49-.156 5.344-.906a21.323 21.323 0 0 0 5.156-2.938 68.48 68.48 0 0 0 3.282-2.781 364.73 364.73 0 0 1 2.875-2.563c.708-.604 1.208-.927 1.5-.968Zm-19.032-7.938c-.229.23-.52.344-.875.344-.354 0-.656-.115-.906-.344a1.293 1.293 0 0 1-.344-.906c0-.354.115-.646.344-.875.25-.25.552-.375.906-.375s.646.125.875.375c.25.229.375.52.375.875 0 .354-.125.656-.375.906Zm44.591 8.563c.292-.126.573-.084.844.124.292.209.448.521.469.938.042.396-.125.865-.5 1.406-.563.75-1.646 1.782-3.25 3.094-1.583 1.313-2.656 2.094-3.219 2.344-2.208.916-4.156.958-5.844.125-.77-.375-1.437-1.084-2-2.125-.541-1.042-.927-1.98-1.156-2.813-.229-.854-.364-1.281-.406-1.281-.354 0-.969.458-1.844 1.375a20.118 20.118 0 0 0-2.375 3.031c-1.896 3-3.416 4.604-4.562 4.813-.563.104-.959-.167-1.188-.813-.146-.354.052-2.281.594-5.781.542-3.5 1.083-6.365 1.625-8.594.25-.937.604-1.593 1.062-1.968.459-.376.896-.365 1.313.03.292.292.125 2.188-.5 5.688-.646 3.542-.969 5.386-.969 5.532 0 .083.188-.105.563-.563.25-.292.541-.667.875-1.125a13.895 13.895 0 0 1 3.312-3.219c1.313-.916 2.334-1.323 3.063-1.218.458.062.802.27 1.031.624.229.355.479 1.084.75 2.188.708 2.833 2.01 4.25 3.906 4.25.75 0 1.604-.302 2.563-.906a15.416 15.416 0 0 0 2.531-1.969c.729-.73 1.417-1.427 2.062-2.094.667-.666 1.084-1.031 1.25-1.093Zm67.652 14.374c-.25.105-1.344.25-3.281.438-1.917.167-4.657.583-8.219 1.25-3.563.646-7.271 1.573-11.125 2.781-4.646 1.459-8.896 3.354-12.75 5.688-3.834 2.354-7.115 5.01-9.844 7.969-1.396 1.541-2.312 2.458-2.75 2.75-.417.312-.844.322-1.281.03-.292-.187-.448-.395-.469-.624 0-.23.104-.615.313-1.156.812-2.021 2.552-6.105 5.218-12.25 5.834-13.667 9.75-23.105 11.75-28.313 2.021-5.208 4.021-11.125 6-17.75 1.625-5.458 2.386-8.292 2.282-8.5-.042-.104-.23.094-.563.594l-.062.062c-.438.625-.917.886-1.438.782-.5-.105-.75-.521-.75-1.25 0-.271.208-.834.625-1.688.438-.875.958-1.781 1.563-2.719 1.479-2.458 2.541-4.552 3.187-6.281.729-1.854 1.375-2.781 1.938-2.781.562 0 .947.166 1.156.5.291.458-.729 4.864-3.063 13.219-2.312 8.333-4.51 15.49-6.593 21.468-1.646 4.709-3.771 10.115-6.375 16.219-6.271 14.896-9.407 22.417-9.407 22.563 0 .041.157-.042.469-.25.313-.209.75-.521 1.313-.938a29.833 29.833 0 0 0 1.781-1.313c2.896-2.166 7.114-4.343 12.656-6.53 5.563-2.188 10.094-3.615 13.594-4.282a95.397 95.397 0 0 1 5.906-.938c2.104-.291 3.917-.52 5.438-.687 1.541-.167 2.354-.26 2.437-.281.521-.104.896 0 1.125.312.229.292.26.636.094 1.031-.146.396-.438.688-.875.876Zm9.997-11.687c2.042-2.208 3.261-3 3.656-2.375.125.208.188.552.188 1.031 0 .48-.51 1.313-1.531 2.5a25.903 25.903 0 0 1-3.313 3.282c-1.187.979-2.021 1.468-2.5 1.468-1.312 0-2.166-.562-2.562-1.687-.396-1.125-.313-2.719.25-4.782.666-2.333.427-2.614-.719-.843-.271.416-.583.937-.938 1.562-2.229 4-3.989 6.344-5.281 7.032-.625.354-1.052.541-1.281.562-.208 0-.656-.135-1.344-.406-.729-.292-1.198-.917-1.406-1.875-.208-.98-.208-2.584 0-4.813.479-5.458 1.25-8.968 2.312-10.531.48-.708.959-.823 1.438-.344.396.396.333 1.854-.188 4.375a65.197 65.197 0 0 0-.906 5.157c-.229 1.708-.344 3.052-.344 4.03 0 .96.105 1.49.313 1.594.812 0 2.74-2.708 5.781-8.124 1.375-2.417 2.521-4.167 3.438-5.25.916-1.105 1.729-1.657 2.437-1.657.792 0 1.219.48 1.281 1.438.063.958-.239 2.5-.906 4.625-1.271 4.166-1.76 6.468-1.469 6.906.271.396 1.24-.313 2.907-2.125.208-.23.437-.48.687-.75Zm21.498-4.156c.416-.104.698 0 .843.312.167.313.188.677.063 1.094-.104.417-.292.708-.563.875-.208.125-.531.24-.968.344-.438.104-1.209.343-2.313.718-1.083.376-2.396.896-3.937 1.563-2.271.98-3.802 1.719-4.594 2.219-.771.479-1.458 1.146-2.063 2-.979 1.375-1.979 2.281-3 2.719-1 .416-1.958.343-2.875-.22-.583-.374-1-.833-1.25-1.374-.25-.542-.333-1.073-.25-1.594.084-.542.167-.958.25-1.25.105-.292.209-.531.313-.719.208-.354.49-.698.844-1.031.354-.354.677-.594.968-.719.73-.291 1.094-.802 1.094-1.531.021-.792.531-2.02 1.531-3.688 1.021-1.666 1.938-2.791 2.75-3.374 1.125-.813 2.042-1.25 2.75-1.313.73-.063 1.355.208 1.875.813.313.354.521.635.625.843.125.188.219.552.282 1.094.062.542-.021 1.188-.25 1.938-.104.479-.261.979-.469 1.5-.188.52-.344.927-.469 1.218-.125.292-.187.448-.187.469.021.02.687-.188 2-.625l4.218-1.406c1.521-.5 2.448-.792 2.782-.875Zm-16.5 8.656c.416-.438.666-.73.75-.875.083-.146.093-.27.031-.375-.063-.104-.281-.25-.656-.438-.396-.229-.698-.312-.907-.25-.187.042-.385.26-.593.657-.188.375-.334.75-.438 1.125-.083.375-.104.687-.062.937.062.25.187.375.375.375.312 0 .812-.385 1.5-1.156Zm4.375-6.219c.979-1.687 1.468-2.896 1.468-3.625 0-.479-.052-.75-.156-.812-.104-.063-.364.031-.781.281-.542.354-1.25 1.281-2.125 2.781-.875 1.5-1.313 2.552-1.313 3.157 0 .729.271.958.813.687.646-.313 1.344-1.135 2.094-2.469Z" fill="#AAA"/></svg><svg fill="none" viewBox="0 0 120 120" id="Play" xmlns="http://www.w3.org/2000/svg"><circle cx="60" cy="60" r="59.5" stroke="#DCCA87"/><path d="M76 61.5 52 76V47l24 14.5Z" fill="#fff"/></svg><svg fill="none" viewBox="0 0 47 40" id="Quotes" xmlns="http://www.w3.org/2000/svg"><path d="M12.914 22.857c2.402 0 4.304.802 5.706 2.406 1.501 1.504 2.252 3.509 2.252 6.015 0 2.707-.9 4.862-2.703 6.466C16.468 39.248 14.115 40 11.112 40c-3.504 0-6.257-1.353-8.259-4.06C.951 33.233 0 29.373 0 24.36c0-4.51 1.001-8.67 3.003-12.48C5.005 7.97 8.01 4.06 12.013.15c.1-.1.25-.15.45-.15.3 0 .55.15.751.451.2.3.2.551 0 .752C8.31 6.216 5.856 12.13 5.856 18.947c0 2.807.5 4.863 1.502 6.166.9-1.504 2.753-2.256 5.556-2.256Zm26.128 0c2.402 0 4.304.802 5.706 2.406C46.249 26.767 47 28.772 47 31.278c0 2.707-.901 4.862-2.703 6.466C42.595 39.248 40.243 40 37.24 40c-3.504 0-6.257-1.353-8.26-4.06-1.901-2.707-2.852-6.567-2.852-11.58 0-4.51 1-8.67 3.003-12.48 2.002-3.91 5.005-7.82 9.01-11.73.1-.1.25-.15.45-.15.3 0 .55.15.75.451.201.3.201.551 0 .752-4.904 5.013-7.357 10.927-7.357 17.744 0 2.807.5 4.863 1.502 6.166.9-1.504 2.753-2.256 5.556-2.256Z" fill="#fff"/></svg><svg fill="none" viewBox="0 0 40 10" id="Spoon" xmlns="http://www.w3.org/2000/svg"><path d="M33.501 9.5C37.085 9.5 40 7.481 40 5S37.085.5 33.5.5c-3.389 0-6.18 1.806-6.471 4.102h-4.677v-.947H0v2.69h22.353v-.947h4.677C27.322 7.694 30.112 9.5 33.5 9.5ZM21.49 5.548H.863V4.452H21.49v1.096ZM27.866 5c0-2.042 2.528-3.704 5.636-3.704 3.107 0 5.635 1.662 5.635 3.704 0 2.042-2.528 3.704-5.636 3.704-3.107 0-5.635-1.662-5.635-3.704Z" fill="#DCCA87"/></svg><svg fill="none" viewBox="0 0 24 24" id="Twitter" xmlns="http://www.w3.org/2000/svg"><path d="M22.991 3.95a1 1 0 0 0-1.51-.86 7.48 7.48 0 0 1-1.873.794 5.152 5.152 0 0 0-3.375-1.242 5.232 5.232 0 0 0-5.223 5.063 11.032 11.032 0 0 1-6.814-3.924 1.011 1.011 0 0 0-.857-.365.998.998 0 0 0-.785.5 5.275 5.275 0 0 0-.242 4.769l-.002.002a1.041 1.041 0 0 0-.496.888 3.04 3.04 0 0 0 .027.44 5.185 5.185 0 0 0 1.568 3.312.999.999 0 0 0-.066.77 5.204 5.204 0 0 0 2.362 2.921 7.465 7.465 0 0 1-3.59.449A1 1 0 0 0 1.45 19.3a12.942 12.942 0 0 0 7.01 2.061 12.788 12.788 0 0 0 12.465-9.363c.353-1.183.533-2.412.535-3.646l-.001-.2a5.77 5.77 0 0 0 1.532-4.202Zm-3.306 3.212a.995.995 0 0 0-.234.702c.01.165.009.331.009.488a10.825 10.825 0 0 1-.454 3.08 10.685 10.685 0 0 1-10.546 7.93c-.86 0-1.715-.101-2.55-.301a9.48 9.48 0 0 0 2.942-1.564 1.001 1.001 0 0 0-.602-1.786 3.208 3.208 0 0 1-2.214-.935c.15-.028.298-.063.445-.105a1 1 0 0 0-.08-1.944 3.197 3.197 0 0 1-2.25-1.725c.181.025.363.04.545.046a1.022 1.022 0 0 0 .984-.696 1 1 0 0 0-.4-1.137A3.196 3.196 0 0 1 3.86 6.344a13.014 13.014 0 0 0 8.21 3.48 1.02 1.02 0 0 0 .817-.36 1 1 0 0 0 .206-.867 3.164 3.164 0 0 1-.087-.729 3.23 3.23 0 0 1 4.506-2.962c.403.176.766.433 1.065.756a.993.993 0 0 0 .921.298 9.27 9.27 0 0 0 1.212-.322 6.679 6.679 0 0 1-1.026 1.524Z" fill="#F5EFDB"/></svg></svg>